STARTFONT 2.1
COMMENT  
COMMENT  WARNING:  This bdf file was generated from an X server using
COMMENT  xbdfdump.  The resulting font is subject to the same copyright,
COMMENT  license, and trademark restrictions as the original font.  The
COMMENT  author and distributors of xbdfdump disclaim all liability for
COMMENT  misuse of the program or its output.
COMMENT  
FONT -phaisarn-pnthai-medium-r-normal--16-160-100-100-m-80-tis620-0
SIZE 16 100 100
FONTBOUNDINGBOX 20 20 -10 -4
STARTPROPERTIES 24
FOUNDRY "phaisarn"
FAMILY_NAME "pnthai"
WEIGHT_NAME "medium"
SLANT "r"
SETWIDTH_NAME "normal"
ADD_STYLE_NAME ""
PIXEL_SIZE 16
POINT_SIZE 160
RESOLUTION_X 100
RESOLUTION_Y 100
SPACING "m"
AVERAGE_WIDTH 80
CHARSET_REGISTRY "tis620"
CHARSET_ENCODING "0"
STRIKEOUT_ASCENT 16
STRIKEOUT_DESCENT 3
X_HEIGHT 8
FACE_NAME "Pn Thai Bitmap font for X-Windows"
COPYRIGHT "Copyright by Pt,TITech 1997"
WEIGHT 10
QUAD_WIDTH 10
DEFAULT_CHAR 32
FONT_ASCENT 17
FONT_DESCENT 3
ENDPROPERTIES
CHARS 183
STARTCHAR space
ENCODING 32
SWIDTH 450 0
DWIDTH 10 0
BBX 10 12 0 0
BITMAP
0000
0000
0000
0000
0000
0000
0000
0000
0000
0000
0000
0000
ENDCHAR
STARTCHAR exclam
ENCODING 33
SWIDTH 450 0
DWIDTH 10 0
BBX 10 12 0 0
BITMAP
0c00
1e00
1e00
1e00
1e00
1e00
0c00
0c00
0c00
0000
0c00
0c00
ENDCHAR
STARTCHAR quotedbl
ENCODING 34
SWIDTH 450 0
DWIDTH 10 0
BBX 10 12 0 0
BITMAP
3300
3300
3300
0000
0000
0000
0000
0000
0000
0000
0000
0000
ENDCHAR
STARTCHAR numbersign
ENCODING 35
SWIDTH 450 0
DWIDTH 10 0
BBX 10 12 0 0
BITMAP
3300
3300
3300
7f80
7f80
3300
3300
7f80
7f80
3300
3300
3300
ENDCHAR
STARTCHAR dollar
ENCODING 36
SWIDTH 450 0
DWIDTH 10 0
BBX 10 16 0 -2
BITMAP
0c00
0c00
1e00
3f00
7380
7000
3800
1c00
0600
0300
0380
7380
3f00
1e00
0c00
0c00
ENDCHAR
STARTCHAR percent
ENCODING 37
SWIDTH 450 0
DWIDTH 10 0
BBX 10 13 0 0
BITMAP
7000
db00
db00
7600
0600
0c00
0c00
1800
1800
3380
36c0
66c0
6380
ENDCHAR
STARTCHAR ampersand
ENCODING 38
SWIDTH 450 0
DWIDTH 10 0
BBX 10 12 0 0
BITMAP
0e00
1b00
3180
1b00
0e00
1800
33c0
6180
6100
6300
3f80
1ec0
ENDCHAR
STARTCHAR apostrophe
ENCODING 39
SWIDTH 450 0
DWIDTH 10 0
BBX 10 12 0 0
BITMAP
0c00
0c00
0c00
0000
0000
0000
0000
0000
0000
0000
0000
0000
ENDCHAR
STARTCHAR parenleft
ENCODING 40
SWIDTH 450 0
DWIDTH 10 0
BBX 10 16 0 -3
BITMAP
0600
0c00
1800
1800
3000
3000
3000
3000
3000
3000
3000
3000
1800
1800
0c00
0600
ENDCHAR
STARTCHAR parenright
ENCODING 41
SWIDTH 450 0
DWIDTH 10 0
BBX 10 16 0 -3
BITMAP
3000
1800
0c00
0c00
0600
0600
0600
0600
0600
0600
0600
0600
0c00
0c00
1800
3000
ENDCHAR
STARTCHAR asterisk
ENCODING 42
SWIDTH 450 0
DWIDTH 10 0
BBX 10 12 0 0
BITMAP
0000
0000
0000
6180
3300
1e00
ffc0
1e00
3300
6180
0000
0000
ENDCHAR
STARTCHAR plus
ENCODING 43
SWIDTH 450 0
DWIDTH 10 0
BBX 10 12 0 0
BITMAP
0000
0c00
0c00
0c00
7f80
7f80
0c00
0c00
0c00
0000
0000
0000
ENDCHAR
STARTCHAR comma
ENCODING 44
SWIDTH 450 0
DWIDTH 10 0
BBX 10 12 0 -3
BITMAP
0000
0000
0000
0000
0000
0000
0c00
0c00
0400
0400
0800
0000
ENDCHAR
STARTCHAR minus
ENCODING 45
SWIDTH 450 0
DWIDTH 10 0
BBX 10 12 0 0
BITMAP
0000
0000
0000
0000
3f00
3f00
0000
0000
0000
0000
0000
0000
ENDCHAR
STARTCHAR period
ENCODING 46
SWIDTH 450 0
DWIDTH 10 0
BBX 10 12 0 0
BITMAP
0000
0000
0000
0000
0000
0000
0000
0000
0000
0000
0c00
0c00
ENDCHAR
STARTCHAR slash
ENCODING 47
SWIDTH 450 0
DWIDTH 10 0
BBX 10 14 0 -2
BITMAP
0180
0180
0300
0300
0600
0600
0c00
0c00
1800
1800
3000
3000
6000
6000
ENDCHAR
STARTCHAR 0
ENCODING 48
SWIDTH 450 0
DWIDTH 10 0
BBX 10 12 0 0
BITMAP
1e00
3f00
7380
6180
6180
6d80
6d80
6180
6180
7380
3f00
1e00
ENDCHAR
STARTCHAR 1
ENCODING 49
SWIDTH 450 0
DWIDTH 10 0
BBX 10 12 0 0
BITMAP
0c00
3c00
3c00
0c00
0c00
0c00
0c00
0c00
0c00
0c00
0c00
0c00
ENDCHAR
STARTCHAR 2
ENCODING 50
SWIDTH 450 0
DWIDTH 10 0
BBX 10 12 0 0
BITMAP
1e00
3f00
7380
0180
0380
0700
0e00
1c00
3800
7000
7f80
7f80
ENDCHAR
STARTCHAR 3
ENCODING 51
SWIDTH 450 0
DWIDTH 10 0
BBX 10 12 0 0
BITMAP
1e00
3f00
7380
0180
0300
0e00
0f00
0380
0180
7380
3f00
1e00
ENDCHAR
STARTCHAR 4
ENCODING 52
SWIDTH 450 0
DWIDTH 10 0
BBX 10 12 0 0
BITMAP
3000
3000
3300
3300
3300
6300
7f80
7f80
0300
0300
0300
0300
ENDCHAR
STARTCHAR 5
ENCODING 53
SWIDTH 450 0
DWIDTH 10 0
BBX 10 12 0 0
BITMAP
7f00
7f00
6000
6000
7e00
7f00
6380
0180
0180
7380
3f00
1e00
ENDCHAR
STARTCHAR 6
ENCODING 54
SWIDTH 450 0
DWIDTH 10 0
BBX 10 12 0 0
BITMAP
1e00
3f00
7380
6000
6e00
7f00
7380
6180
6180
7380
3f00
1e00
ENDCHAR
STARTCHAR 7
ENCODING 55
SWIDTH 450 0
DWIDTH 10 0
BBX 10 12 0 0
BITMAP
3f80
3f80
0180
0300
0600
0c00
0c00
0c00
0c00
0c00
0c00
0c00
ENDCHAR
STARTCHAR 8
ENCODING 56
SWIDTH 450 0
DWIDTH 10 0
BBX 10 12 0 0
BITMAP
1e00
3f00
7380
6180
3300
1e00
3f00
7380
6180
7380
3f00
1e00
ENDCHAR
STARTCHAR 9
ENCODING 57
SWIDTH 450 0
DWIDTH 10 0
BBX 10 12 0 0
BITMAP
1e00
3f00
7380
6180
7380
3f80
1d80
0180
6180
7380
3f00
1e00
ENDCHAR
STARTCHAR colon
ENCODING 58
SWIDTH 450 0
DWIDTH 10 0
BBX 10 12 0 0
BITMAP
0000
0000
0c00
0c00
0000
0000
0000
0000
0000
0c00
0c00
0000
ENDCHAR
STARTCHAR semicolon
ENCODING 59
SWIDTH 450 0
DWIDTH 10 0
BBX 10 14 0 -2
BITMAP
0000
0000
0c00
0c00
0000
0000
0000
0000
0000
0c00
0c00
0400
0400
0800
ENDCHAR
STARTCHAR less
ENCODING 60
SWIDTH 450 0
DWIDTH 10 0
BBX 10 12 0 0
BITMAP
0000
0300
0600
0c00
1800
3000
6000
3000
1800
0c00
0600
0300
ENDCHAR
STARTCHAR equal
ENCODING 61
SWIDTH 450 0
DWIDTH 10 0
BBX 10 12 0 0
BITMAP
0000
0000
0000
7f80
7f80
0000
0000
7f80
7f80
0000
0000
0000
ENDCHAR
STARTCHAR greater
ENCODING 62
SWIDTH 450 0
DWIDTH 10 0
BBX 10 12 0 0
BITMAP
0000
3000
1800
0c00
0600
0300
0180
0300
0600
0c00
1800
3000
ENDCHAR
STARTCHAR question
ENCODING 63
SWIDTH 450 0
DWIDTH 10 0
BBX 10 12 0 0
BITMAP
1e00
3f00
7380
6180
0380
0700
0e00
0c00
0c00
0000
0c00
0c00
ENDCHAR
STARTCHAR at
ENCODING 64
SWIDTH 450 0
DWIDTH 10 0
BBX 10 13 0 0
BITMAP
1e00
3f00
7380
6180
6180
6780
6f80
6980
6980
6f80
6780
6000
3f00
ENDCHAR
STARTCHAR A
ENCODING 65
SWIDTH 450 0
DWIDTH 10 0
BBX 10 12 0 0
BITMAP
1e00
3f00
7380
6180
6180
6180
7f80
7f80
6180
6180
6180
6180
ENDCHAR
STARTCHAR B
ENCODING 66
SWIDTH 450 0
DWIDTH 10 0
BBX 10 12 0 0
BITMAP
7e00
7f00
6180
6180
6180
7f00
7f00
6180
6180
6180
7f00
7e00
ENDCHAR
STARTCHAR C
ENCODING 67
SWIDTH 450 0
DWIDTH 10 0
BBX 10 12 0 0
BITMAP
1e00
3f00
7380
6000
6000
6000
6000
6000
6000
7380
3f00
1e00
ENDCHAR
STARTCHAR D
ENCODING 68
SWIDTH 450 0
DWIDTH 10 0
BBX 10 12 0 0
BITMAP
7e00
7f00
6380
6180
6180
6180
6180
6180
6180
6380
7f00
7e00
ENDCHAR
STARTCHAR E
ENCODING 69
SWIDTH 450 0
DWIDTH 10 0
BBX 10 12 0 0
BITMAP
7f80
7f80
6000
6000
6000
7e00
7e00
6000
6000
6000
7f80
7f80
ENDCHAR
STARTCHAR F
ENCODING 70
SWIDTH 450 0
DWIDTH 10 0
BBX 10 12 0 0
BITMAP
7f80
7f80
6000
6000
6000
7e00
7e00
6000
6000
6000
6000
6000
ENDCHAR
STARTCHAR G
ENCODING 71
SWIDTH 450 0
DWIDTH 10 0
BBX 10 12 0 0
BITMAP
1e00
3f00
7380
6000
6000
6780
6780
6180
6180
7380
3f80
1d80
ENDCHAR
STARTCHAR H
ENCODING 72
SWIDTH 450 0
DWIDTH 10 0
BBX 10 12 0 0
BITMAP
6180
6180
6180
6180
6180
7f80
7f80
6180
6180
6180
6180
6180
ENDCHAR
STARTCHAR I
ENCODING 73
SWIDTH 450 0
DWIDTH 10 0
BBX 10 12 0 0
BITMAP
3f00
3f00
0c00
0c00
0c00
0c00
0c00
0c00
0c00
0c00
3f00
3f00
ENDCHAR
STARTCHAR J
ENCODING 74
SWIDTH 450 0
DWIDTH 10 0
BBX 10 12 0 0
BITMAP
0180
0180
0180
0180
0180
0180
0180
0180
0180
7380
3f00
1e00
ENDCHAR
STARTCHAR K
ENCODING 75
SWIDTH 450 0
DWIDTH 10 0
BBX 10 12 0 0
BITMAP
6300
6700
6e00
7c00
7800
7000
7800
7c00
6e00
6700
6380
6180
ENDCHAR
STARTCHAR L
ENCODING 76
SWIDTH 450 0
DWIDTH 10 0
BBX 10 12 0 0
BITMAP
6000
6000
6000
6000
6000
6000
6000
6000
6000
6000
7f80
7f80
ENDCHAR
STARTCHAR M
ENCODING 77
SWIDTH 450 0
DWIDTH 10 0
BBX 10 12 0 0
BITMAP
6180
6180
7380
7380
7f80
7f80
6d80
6d80
6180
6180
6180
6180
ENDCHAR
STARTCHAR N
ENCODING 78
SWIDTH 450 0
DWIDTH 10 0
BBX 10 12 0 0
BITMAP
6180
7180
7180
7980
7980
6d80
6d80
6780
6780
6380
6380
6180
ENDCHAR
STARTCHAR O
ENCODING 79
SWIDTH 450 0
DWIDTH 10 0
BBX 10 12 0 0
BITMAP
1e00
3f00
7380
6180
6180
6180
6180
6180
6180
7380
3f00
1e00
ENDCHAR
STARTCHAR P
ENCODING 80
SWIDTH 450 0
DWIDTH 10 0
BBX 10 12 0 0
BITMAP
7e00
7f00
6380
6180
6180
6380
7f00
7e00
6000
6000
6000
6000
ENDCHAR
STARTCHAR Q
ENCODING 81
SWIDTH 450 0
DWIDTH 10 0
BBX 10 12 0 0
BITMAP
1e00
3f00
7380
6180
6180
6180
6180
6d80
6f80
7780
3f80
1d80
ENDCHAR
STARTCHAR R
ENCODING 82
SWIDTH 450 0
DWIDTH 10 0
BBX 10 12 0 0
BITMAP
7e00
7f00
6380
6180
6180
6380
7f00
7e00
6300
6180
6180
6180
ENDCHAR
STARTCHAR S
ENCODING 83
SWIDTH 450 0
DWIDTH 10 0
BBX 10 12 0 0
BITMAP
1e00
3f00
7380
7000
3800
1c00
0600
0300
0380
7380
3f00
1e00
ENDCHAR
STARTCHAR T
ENCODING 84
SWIDTH 450 0
DWIDTH 10 0
BBX 10 12 0 0
BITMAP
7f80
7f80
0c00
0c00
0c00
0c00
0c00
0c00
0c00
0c00
0c00
0c00
ENDCHAR
STARTCHAR U
ENCODING 85
SWIDTH 450 0
DWIDTH 10 0
BBX 10 12 0 0
BITMAP
6180
6180
6180
6180
6180
6180
6180
6180
6180
7380
3f00
1e00
ENDCHAR
STARTCHAR V
ENCODING 86
SWIDTH 450 0
DWIDTH 10 0
BBX 10 12 0 0
BITMAP
6180
6180
6180
6180
6180
6180
6180
3300
3300
1e00
1e00
0c00
ENDCHAR
STARTCHAR W
ENCODING 87
SWIDTH 450 0
DWIDTH 10 0
BBX 10 12 0 0
BITMAP
0000
6180
6180
6180
6d80
6d80
6d80
6d80
7f80
7f80
3f00
3300
ENDCHAR
STARTCHAR X
ENCODING 88
SWIDTH 450 0
DWIDTH 10 0
BBX 10 12 0 0
BITMAP
6180
6180
3300
3300
1e00
0c00
0c00
1e00
3300
3300
6180
6180
ENDCHAR
STARTCHAR Y
ENCODING 89
SWIDTH 450 0
DWIDTH 10 0
BBX 10 12 0 0
BITMAP
6180
6180
6180
6180
3300
1e00
0c00
0c00
0c00
0c00
0c00
0c00
ENDCHAR
STARTCHAR Z
ENCODING 90
SWIDTH 450 0
DWIDTH 10 0
BBX 10 12 0 0
BITMAP
7f80
7f80
0180
0380
0700
0e00
1c00
3800
7000
6000
7f80
7f80
ENDCHAR
STARTCHAR bracketleft
ENCODING 91
SWIDTH 450 0
DWIDTH 10 0
BBX 10 15 0 -3
BITMAP
1e00
1e00
1800
1800
1800
1800
1800
1800
1800
1800
1800
1800
1800
1e00
1e00
ENDCHAR
STARTCHAR backslash
ENCODING 92
SWIDTH 450 0
DWIDTH 10 0
BBX 10 14 0 -2
BITMAP
6000
6000
3000
3000
1800
1800
0c00
0c00
0600
0600
0300
0300
0180
0180
ENDCHAR
STARTCHAR bracketright
ENCODING 93
SWIDTH 450 0
DWIDTH 10 0
BBX 10 15 0 -3
BITMAP
1e00
1e00
0600
0600
0600
0600
0600
0600
0600
0600
0600
0600
0600
1e00
1e00
ENDCHAR
STARTCHAR asciicircum
ENCODING 94
SWIDTH 450 0
DWIDTH 10 0
BBX 10 4 0 11
BITMAP
0c00
1e00
3300
4080
ENDCHAR
STARTCHAR underscore
ENCODING 95
SWIDTH 360 0
DWIDTH 8 0
BBX 8 16 0 -2
BITMAP
00
00
00
00
00
00
00
00
00
00
00
00
00
00
ff
ff
ENDCHAR
STARTCHAR grave
ENCODING 96
SWIDTH 450 0
DWIDTH 10 0
BBX 10 3 0 12
BITMAP
1c00
0c00
0600
ENDCHAR
STARTCHAR a
ENCODING 97
SWIDTH 450 0
DWIDTH 10 0
BBX 10 9 0 0
BITMAP
3f00
3f80
0180
3f80
7f80
6180
6180
7f80
3f80
ENDCHAR
STARTCHAR b
ENCODING 98
SWIDTH 450 0
DWIDTH 10 0
BBX 10 12 0 0
BITMAP
6000
6000
6000
6e00
7f00
7380
6180
6180
6180
7380
7f00
6e00
ENDCHAR
STARTCHAR c
ENCODING 99
SWIDTH 450 0
DWIDTH 10 0
BBX 10 9 0 0
BITMAP
1e00
3f00
7380
6000
6000
6000
7380
3f00
1e00
ENDCHAR
STARTCHAR d
ENCODING 100
SWIDTH 450 0
DWIDTH 10 0
BBX 10 12 0 0
BITMAP
0180
0180
0180
1d80
3f80
7380
6180
6180
6180
7380
3f80
1d80
ENDCHAR
STARTCHAR e
ENCODING 101
SWIDTH 450 0
DWIDTH 10 0
BBX 10 9 0 0
BITMAP
1e00
3f00
7380
6180
7f80
7f80
7000
3f00
1e00
ENDCHAR
STARTCHAR f
ENCODING 102
SWIDTH 450 0
DWIDTH 10 0
BBX 10 12 0 0
BITMAP
0f00
1f80
1980
1800
7f00
7f00
1800
1800
1800
1800
1800
1800
ENDCHAR
STARTCHAR g
ENCODING 103
SWIDTH 450 0
DWIDTH 10 0
BBX 10 13 0 -4
BITMAP
1e00
3f00
7380
6180
6180
6180
7380
3f80
1d80
0180
0380
3f00
3e00
ENDCHAR
STARTCHAR h
ENCODING 104
SWIDTH 450 0
DWIDTH 10 0
BBX 10 12 0 0
BITMAP
6000
6000
6000
6e00
7f00
7380
6180
6180
6180
6180
6180
6180
ENDCHAR
STARTCHAR i
ENCODING 105
SWIDTH 450 0
DWIDTH 10 0
BBX 10 13 0 0
BITMAP
0c00
0c00
0000
0000
3c00
3c00
0c00
0c00
0c00
0c00
0c00
3f00
3f00
ENDCHAR
STARTCHAR j
ENCODING 106
SWIDTH 450 0
DWIDTH 10 0
BBX 10 17 0 -4
BITMAP
0600
0600
0000
0000
1e00
1e00
0600
0600
0600
0600
0600
0600
0600
0600
0e00
3c00
3800
ENDCHAR
STARTCHAR k
ENCODING 107
SWIDTH 450 0
DWIDTH 10 0
BBX 10 12 0 0
BITMAP
6000
6000
6000
6300
6600
6c00
7800
7000
7c00
6600
6300
6180
ENDCHAR
STARTCHAR l
ENCODING 108
SWIDTH 450 0
DWIDTH 10 0
BBX 10 12 0 0
BITMAP
3c00
3c00
0c00
0c00
0c00
0c00
0c00
0c00
0c00
0c00
3f00
3f00
ENDCHAR
STARTCHAR m
ENCODING 109
SWIDTH 450 0
DWIDTH 10 0
BBX 10 9 0 0
BITMAP
6d00
7f80
6d80
6d80
6d80
6d80
6d80
6d80
6d80
ENDCHAR
STARTCHAR n
ENCODING 110
SWIDTH 450 0
DWIDTH 10 0
BBX 10 9 0 0
BITMAP
6e00
7f00
7380
6180
6180
6180
6180
6180
6180
ENDCHAR
STARTCHAR o
ENCODING 111
SWIDTH 450 0
DWIDTH 10 0
BBX 10 9 0 0
BITMAP
1e00
3f00
7380
6180
6180
6180
7380
3f00
1e00
ENDCHAR
STARTCHAR p
ENCODING 112
SWIDTH 450 0
DWIDTH 10 0
BBX 10 13 0 -4
BITMAP
6e00
7f00
7380
6180
6180
6180
7380
7f00
6e00
6000
6000
6000
6000
ENDCHAR
STARTCHAR q
ENCODING 113
SWIDTH 450 0
DWIDTH 10 0
BBX 10 13 0 -4
BITMAP
1d80
3f80
7380
6180
6180
6180
7380
3f80
1d80
0180
0180
0180
0180
ENDCHAR
STARTCHAR r
ENCODING 114
SWIDTH 450 0
DWIDTH 10 0
BBX 10 9 0 0
BITMAP
6e00
7f00
7b00
7000
6000
6000
6000
6000
6000
ENDCHAR
STARTCHAR s
ENCODING 115
SWIDTH 450 0
DWIDTH 10 0
BBX 10 9 0 0
BITMAP
1e00
3f00
6180
7800
3f00
0380
6180
3f00
1e00
ENDCHAR
STARTCHAR t
ENCODING 116
SWIDTH 450 0
DWIDTH 10 0
BBX 10 12 0 0
BITMAP
1800
1800
1800
3f00
3f00
1800
1800
1800
1800
1800
1f00
0f00
ENDCHAR
STARTCHAR u
ENCODING 117
SWIDTH 450 0
DWIDTH 10 0
BBX 10 9 0 0
BITMAP
6180
6180
6180
6180
6180
6180
7380
3f80
1d80
ENDCHAR
STARTCHAR v
ENCODING 118
SWIDTH 450 0
DWIDTH 10 0
BBX 10 9 0 0
BITMAP
6180
6180
6180
6180
6180
6180
3300
1e00
0c00
ENDCHAR
STARTCHAR w
ENCODING 119
SWIDTH 450 0
DWIDTH 10 0
BBX 10 9 0 0
BITMAP
6180
6180
6180
6d80
6d80
7f80
7f80
7380
2100
ENDCHAR
STARTCHAR x
ENCODING 120
SWIDTH 450 0
DWIDTH 10 0
BBX 10 9 0 0
BITMAP
6180
7380
3f00
1e00
0c00
1e00
3f00
7380
6180
ENDCHAR
STARTCHAR y
ENCODING 121
SWIDTH 450 0
DWIDTH 10 0
BBX 10 13 0 -4
BITMAP
6180
6180
6180
6180
6180
6180
7380
3f80
1d80
0180
0380
3f00
3e00
ENDCHAR
STARTCHAR z
ENCODING 122
SWIDTH 450 0
DWIDTH 10 0
BBX 10 9 0 0
BITMAP
7f80
7f80
0300
0600
0c00
1800
3000
7f80
7f80
ENDCHAR
STARTCHAR braceleft
ENCODING 123
SWIDTH 450 0
DWIDTH 10 0
BBX 10 15 0 -3
BITMAP
0600
0c00
1800
1800
1800
1800
1800
3000
1800
1800
1800
1800
1800
0c00
0600
ENDCHAR
STARTCHAR bar
ENCODING 124
SWIDTH 450 0
DWIDTH 10 0
BBX 10 13 0 -1
BITMAP
0c00
0c00
0c00
0c00
0c00
0c00
0c00
0c00
0c00
0c00
0c00
0c00
0c00
ENDCHAR
STARTCHAR braceright
ENCODING 125
SWIDTH 450 0
DWIDTH 10 0
BBX 10 15 0 -3
BITMAP
1800
0c00
0600
0600
0600
0600
0600
0300
0600
0600
0600
0600
0600
0c00
1800
ENDCHAR
STARTCHAR asciitilde
ENCODING 126
SWIDTH 450 0
DWIDTH 10 0
BBX 10 3 0 10
BITMAP
3880
6d80
4700
ENDCHAR
STARTCHAR exclamdown
ENCODING 161
SWIDTH 450 0
DWIDTH 10 0
BBX 10 9 0 0
BITMAP
7f00
7f80
3180
6180
6180
6180
6180
6180
6180
ENDCHAR
STARTCHAR cent
ENCODING 162
SWIDTH 450 0
DWIDTH 10 0
BBX 10 9 0 0
BITMAP
3980
3980
1980
1980
1980
1980
1980
1f80
0f00
ENDCHAR
STARTCHAR sterling
ENCODING 163
SWIDTH 450 0
DWIDTH 10 0
BBX 10 9 0 0
BITMAP
6d80
7d80
3d80
1980
1980
1980
1980
1f80
0f00
ENDCHAR
STARTCHAR currency
ENCODING 164
SWIDTH 450 0
DWIDTH 10 0
BBX 10 9 0 0
BITMAP
3f00
7f80
6180
6180
7d80
7d80
6180
6180
6180
ENDCHAR
STARTCHAR yen
ENCODING 165
SWIDTH 450 0
DWIDTH 10 0
BBX 10 9 0 0
BITMAP
3300
7f80
6d80
6180
7d80
7d80
6180
6180
6180
ENDCHAR
STARTCHAR brokenbar
ENCODING 166
SWIDTH 450 0
DWIDTH 10 0
BBX 10 9 0 0
BITMAP
d980
f980
7180
3180
3180
3180
7d80
7f80
3700
ENDCHAR
STARTCHAR section
ENCODING 167
SWIDTH 450 0
DWIDTH 10 0
BBX 10 9 0 0
BITMAP
0700
0700
0300
0300
6300
3300
1b00
0f00
0700
ENDCHAR
STARTCHAR diaeresis
ENCODING 168
SWIDTH 450 0
DWIDTH 10 0
BBX 10 9 0 0
BITMAP
3f00
7f80
6180
0180
1d80
1f80
0380
0380
0180
ENDCHAR
STARTCHAR copyright
ENCODING 169
SWIDTH 450 0
DWIDTH 10 0
BBX 10 9 0 0
BITMAP
3f00
7f80
6180
0180
3180
3980
1fc0
1fc0
1980
ENDCHAR
STARTCHAR ordfeminine
ENCODING 170
SWIDTH 450 0
DWIDTH 10 0
BBX 10 9 0 0
BITMAP
3980
3b80
1f00
1f80
1980
1980
1980
1f80
0f00
ENDCHAR
STARTCHAR guillemotleft
ENCODING 171
SWIDTH 450 0
DWIDTH 10 0
BBX 10 9 0 0
BITMAP
6d80
7f80
3f00
1980
1980
1980
1980
1f80
0f00
ENDCHAR
STARTCHAR notsign
ENCODING 172
SWIDTH 450 0
DWIDTH 10 0
BBX 10 9 0 0
BITMAP
7cc0
7ec0
36c0
76c0
66c0
66c0
6fc0
7fc0
36c0
ENDCHAR
STARTCHAR hyphen
ENCODING 173
SWIDTH 450 0
DWIDTH 10 0
BBX 10 12 0 -3
BITMAP
7cc0
7ec0
36c0
76c0
66c0
66c0
66c0
77c0
3380
0000
06c0
0780
ENDCHAR
STARTCHAR registered
ENCODING 174
SWIDTH 450 0
DWIDTH 10 0
BBX 10 12 0 -3
BITMAP
3f00
3f80
1980
3180
3180
3180
3180
7180
6180
0180
3f80
3380
ENDCHAR
STARTCHAR macron
ENCODING 175
SWIDTH 450 0
DWIDTH 10 0
BBX 10 12 0 -3
BITMAP
3f00
3f80
1980
3180
3180
3180
3180
7180
6180
0180
2d80
3b80
ENDCHAR
STARTCHAR degree
ENCODING 176
SWIDTH 450 0
DWIDTH 10 0
BBX 10 13 0 -3
BITMAP
0000
3180
7f80
7f00
0180
1d80
1f80
0380
0380
0180
0000
2d80
3b80
ENDCHAR
STARTCHAR plusminus
ENCODING 177
SWIDTH 450 0
DWIDTH 10 0
BBX 10 9 0 0
BITMAP
db00
ff80
7f80
3d80
3980
3180
3180
3180
3180
ENDCHAR
STARTCHAR twosuperior
ENCODING 178
SWIDTH 450 0
DWIDTH 10 0
BBX 10 9 0 0
BITMAP
24c0
7ec0
7ec0
66c0
66c0
66c0
67c0
77c0
36c0
ENDCHAR
STARTCHAR threesuperior
ENCODING 179
SWIDTH 450 0
DWIDTH 10 0
BBX 10 9 0 0
BITMAP
7cc0
7ec0
36c0
66c0
66c0
67c0
6780
76c0
36c0
ENDCHAR
STARTCHAR acute
ENCODING 180
SWIDTH 450 0
DWIDTH 10 0
BBX 10 9 0 0
BITMAP
3f00
7f80
6180
6180
7d80
7d80
6d80
7d80
3980
ENDCHAR
STARTCHAR mu
ENCODING 181
SWIDTH 450 0
DWIDTH 10 0
BBX 10 9 0 0
BITMAP
3300
7f80
6d80
6180
7d80
7d80
6d80
7d80
3980
ENDCHAR
STARTCHAR paragraph
ENCODING 182
SWIDTH 450 0
DWIDTH 10 0
BBX 10 9 0 0
BITMAP
7f00
7f80
3180
6180
6180
6180
6180
7180
3180
ENDCHAR
STARTCHAR periodcentered
ENCODING 183
SWIDTH 450 0
DWIDTH 10 0
BBX 10 9 0 0
BITMAP
7700
7f80
3d80
3980
3980
3180
3180
3180
3180
ENDCHAR
STARTCHAR cedilla
ENCODING 184
SWIDTH 450 0
DWIDTH 10 0
BBX 10 9 0 0
BITMAP
1f80
3f80
3000
3f00
3f80
0180
3180
3f80
1f00
ENDCHAR
STARTCHAR onesuperior
ENCODING 185
SWIDTH 450 0
DWIDTH 10 0
BBX 10 9 0 0
BITMAP
7180
7180
3180
3180
3180
3180
37c0
3fc0
3980
ENDCHAR
STARTCHAR masculine
ENCODING 186
SWIDTH 450 0
DWIDTH 10 0
BBX 10 9 0 0
BITMAP
7180
7180
3180
3180
3180
3180
3180
3f80
1f00
ENDCHAR
STARTCHAR guillemotright
ENCODING 187
SWIDTH 450 0
DWIDTH 10 0
BBX 10 13 0 0
BITMAP
0180
0180
0180
0180
7180
7180
3180
3180
3180
3180
3180
3f80
1f00
ENDCHAR
STARTCHAR onequarter
ENCODING 188
SWIDTH 450 0
DWIDTH 10 0
BBX 10 9 0 0
BITMAP
7180
7180
6180
6180
6d80
6d80
6d80
7f80
3f00
ENDCHAR
STARTCHAR onehalf
ENCODING 189
SWIDTH 450 0
DWIDTH 10 0
BBX 10 13 0 0
BITMAP
0180
0180
0180
0180
7180
7180
6180
6180
6d80
6d80
6d80
7f80
3f00
ENDCHAR
STARTCHAR threequarters
ENCODING 190
SWIDTH 450 0
DWIDTH 10 0
BBX 10 9 0 0
BITMAP
76c0
76c0
36c0
36c0
36c0
36c0
36c0
3fc0
1f80
ENDCHAR
STARTCHAR questiondown
ENCODING 191
SWIDTH 450 0
DWIDTH 10 0
BBX 10 13 0 0
BITMAP
00c0
00c0
00c0
00c0
76c0
76c0
36c0
36c0
36c0
36c0
36c0
3fc0
1f80
ENDCHAR
STARTCHAR Agrave
ENCODING 192
SWIDTH 450 0
DWIDTH 10 0
BBX 10 9 0 0
BITMAP
3f00
3f80
1980
3180
3180
3180
3180
7180
6180
ENDCHAR
STARTCHAR Aacute
ENCODING 193
SWIDTH 450 0
DWIDTH 10 0
BBX 10 9 0 0
BITMAP
7180
7180
3180
3180
3180
3180
7d80
7f80
3700
ENDCHAR
STARTCHAR Acircumflex
ENCODING 194
SWIDTH 450 0
DWIDTH 10 0
BBX 10 9 0 0
BITMAP
7180
7180
6180
7980
3980
6180
6180
7f80
3f00
ENDCHAR
STARTCHAR Atilde
ENCODING 195
SWIDTH 450 0
DWIDTH 10 0
BBX 10 9 0 0
BITMAP
3e00
7f00
6000
7e00
7f00
0300
0300
0700
0600
ENDCHAR
STARTCHAR Adiaeresis
ENCODING 196
SWIDTH 450 0
DWIDTH 10 0
BBX 10 12 0 -3
BITMAP
7f00
7f80
3180
6180
6180
6180
6180
7180
3180
0180
0180
0180
ENDCHAR
STARTCHAR Aring
ENCODING 197
SWIDTH 450 0
DWIDTH 10 0
BBX 10 9 0 0
BITMAP
1f00
3f80
2180
1f80
3f80
3180
3180
3980
1980
ENDCHAR
STARTCHAR AE
ENCODING 198
SWIDTH 450 0
DWIDTH 10 0
BBX 10 12 0 -3
BITMAP
3f00
3f80
1980
3180
3180
3180
3180
7180
6180
0180
0180
0180
ENDCHAR
STARTCHAR Ccedilla
ENCODING 199
SWIDTH 450 0
DWIDTH 10 0
BBX 10 9 0 0
BITMAP
1f00
3f80
3180
0180
0180
0180
0180
0780
0700
ENDCHAR
STARTCHAR Egrave
ENCODING 200
SWIDTH 450 0
DWIDTH 10 0
BBX 10 10 0 0
BITMAP
0180
3f80
7f80
6180
6180
7d80
7d80
6180
6180
6180
ENDCHAR
STARTCHAR Eacute
ENCODING 201
SWIDTH 450 0
DWIDTH 10 0
BBX 10 9 0 0
BITMAP
7180
7180
3180
3580
37c0
37c0
3180
3f80
1f00
ENDCHAR
STARTCHAR Ecircumflex
ENCODING 202
SWIDTH 450 0
DWIDTH 10 0
BBX 10 10 0 0
BITMAP
0180
1f80
3f80
2180
1f80
3f80
3180
3180
3980
1980
ENDCHAR
STARTCHAR Ediaeresis
ENCODING 203
SWIDTH 450 0
DWIDTH 10 0
BBX 10 9 0 0
BITMAP
7380
7780
3f00
3d80
3980
3180
3180
3180
3180
ENDCHAR
STARTCHAR Igrave
ENCODING 204
SWIDTH 450 0
DWIDTH 10 0
BBX 10 10 0 0
BITMAP
00c0
7180
76c0
36c0
36c0
36c0
36c0
36c0
3fc0
1f80
ENDCHAR
STARTCHAR Iacute
ENCODING 205
SWIDTH 450 0
DWIDTH 10 0
BBX 10 9 0 0
BITMAP
1f00
3f80
3180
0180
3980
3980
3180
3f80
1f00
ENDCHAR
STARTCHAR Icircumflex
ENCODING 206
SWIDTH 450 0
DWIDTH 10 0
BBX 10 10 0 0
BITMAP
0180
3f80
7f00
3f80
0180
3980
3980
3180
3f80
1f00
ENDCHAR
STARTCHAR Idiaeresis
ENCODING 207
SWIDTH 450 0
DWIDTH 10 0
BBX 10 9 0 0
BITMAP
3980
3b80
3f80
0d80
0180
0180
0180
0180
0180
ENDCHAR
STARTCHAR ETH
ENCODING 208
SWIDTH 450 0
DWIDTH 10 0
BBX 10 9 0 0
BITMAP
3000
3f00
1f00
0000
0000
3000
3f00
1f00
0000
ENDCHAR
STARTCHAR Ntilde
ENCODING 209
SWIDTH 0 0
DWIDTH 0 0
BBX 10 3 -10 9
BITMAP
0cc0
0f80
0000
ENDCHAR
STARTCHAR Ograve
ENCODING 210
SWIDTH 450 0
DWIDTH 10 0
BBX 10 9 0 0
BITMAP
1f00
3f80
3180
0180
0180
0180
0180
0180
0180
ENDCHAR
STARTCHAR Oacute
ENCODING 211
SWIDTH 450 0
DWIDTH 10 0
BBX 14 13 -4 0
BITMAP
7000
9000
e000
0000
01f0
03f8
0318
0018
0018
0018
0018
0018
0018
ENDCHAR
STARTCHAR Ocircumflex
ENCODING 212
SWIDTH 0 0
DWIDTH 0 0
BBX 10 3 -10 10
BITMAP
0000
3f00
7f80
ENDCHAR
STARTCHAR Otilde
ENCODING 213
SWIDTH 0 0
DWIDTH 0 0
BBX 10 3 -10 10
BITMAP
0180
3f80
7f80
ENDCHAR
STARTCHAR Odiaeresis
ENCODING 214
SWIDTH 0 0
DWIDTH 0 0
BBX 10 3 -10 10
BITMAP
01c0
3f40
7f80
ENDCHAR
STARTCHAR multiply
ENCODING 215
SWIDTH 0 0
DWIDTH 0 0
BBX 10 3 -10 10
BITMAP
0580
3d80
7f80
ENDCHAR
STARTCHAR Ooblique
ENCODING 216
SWIDTH 0 0
DWIDTH 0 0
BBX 10 4 -10 -4
BITMAP
0000
0700
0300
0300
ENDCHAR
STARTCHAR Ugrave
ENCODING 217
SWIDTH 0 0
DWIDTH 0 0
BBX 10 4 -10 -4
BITMAP
0000
1d80
0d80
0f80
ENDCHAR
STARTCHAR Uacute
ENCODING 218
SWIDTH 0 0
DWIDTH 0 0
BBX 10 4 -10 -4
BITMAP
0000
0600
0600
0000
ENDCHAR
STARTCHAR Udiaeresis
ENCODING 220
SWIDTH 360 0
DWIDTH 8 0
BBX 8 9 0 -1
BITMAP
00
00
00
00
00
00
00
7e
42
ENDCHAR
STARTCHAR ssharp
ENCODING 223
SWIDTH 450 0
DWIDTH 10 0
BBX 10 14 0 -1
BITMAP
0c00
7e00
7f00
6d80
6d80
6d80
7f00
7f00
6d80
6d80
6d80
7f00
7e00
0c00
ENDCHAR
STARTCHAR agrave
ENCODING 224
SWIDTH 450 0
DWIDTH 10 0
BBX 10 9 0 0
BITMAP
0c00
0c00
0c00
0c00
0c00
0c00
0c00
0e00
0600
ENDCHAR
STARTCHAR aacute
ENCODING 225
SWIDTH 450 0
DWIDTH 10 0
BBX 10 9 0 0
BITMAP
3300
3300
3300
3300
3300
3300
3300
3b80
1980
ENDCHAR
STARTCHAR acircumflex
ENCODING 226
SWIDTH 450 0
DWIDTH 10 0
BBX 10 14 0 0
BITMAP
3e00
7f00
6000
7c00
7e00
0600
0600
0600
0600
0600
0600
0600
0700
0300
ENDCHAR
STARTCHAR atilde
ENCODING 227
SWIDTH 450 0
DWIDTH 10 0
BBX 10 14 0 0
BITMAP
3c00
7e00
6600
0600
0600
0600
0600
0600
0600
0600
0600
0600
0700
0300
ENDCHAR
STARTCHAR adiaeresis
ENCODING 228
SWIDTH 450 0
DWIDTH 10 0
BBX 10 14 0 0
BITMAP
6600
7f00
3f00
0300
0300
0300
0300
0300
0300
0300
0300
0300
0380
0180
ENDCHAR
STARTCHAR aring
ENCODING 229
SWIDTH 450 0
DWIDTH 10 0
BBX 10 12 0 -3
BITMAP
1f00
3f80
3180
0180
0180
0180
0180
0180
0180
0180
0180
0180
ENDCHAR
STARTCHAR ae
ENCODING 230
SWIDTH 450 0
DWIDTH 10 0
BBX 10 12 0 -3
BITMAP
1b00
3f80
3f80
3180
3980
1980
0180
0180
0180
0180
0180
0180
ENDCHAR
STARTCHAR ccedilla
ENCODING 231
SWIDTH 0 0
DWIDTH 0 0
BBX 10 6 -10 9
BITMAP
00c0
0f80
1800
1c80
1780
0000
ENDCHAR
STARTCHAR egrave
ENCODING 232
SWIDTH 0 0
DWIDTH 0 0
BBX 5 3 -5 13
BITMAP
30
30
00
ENDCHAR
STARTCHAR eacute
ENCODING 233
SWIDTH 0 0
DWIDTH 0 0
BBX 5 3 -5 13
BITMAP
68
30
00
ENDCHAR
STARTCHAR ecircumflex
ENCODING 234
SWIDTH 0 0
DWIDTH 0 0
BBX 5 3 -5 13
BITMAP
e8
b0
00
ENDCHAR
STARTCHAR ediaeresis
ENCODING 235
SWIDTH 0 0
DWIDTH 0 0
BBX 5 3 -5 13
BITMAP
30
78
30
ENDCHAR
STARTCHAR igrave
ENCODING 236
SWIDTH 0 0
DWIDTH 0 0
BBX 5 3 -5 13
BITMAP
18
30
38
ENDCHAR
STARTCHAR iacute
ENCODING 237
SWIDTH 0 0
DWIDTH 0 0
BBX 4 4 -4 9
BITMAP
70
90
e0
00
ENDCHAR
STARTCHAR icircumflex
ENCODING 238
SWIDTH 0 0
DWIDTH 0 0
BBX 6 6 -6 9
BITMAP
18
20
18
20
18
00
ENDCHAR
STARTCHAR idiaeresis
ENCODING 239
SWIDTH 450 0
DWIDTH 10 0
BBX 10 9 0 0
BITMAP
0000
1e00
3f00
6180
6d80
6d80
6180
3f00
1e00
ENDCHAR
STARTCHAR eth
ENCODING 240
SWIDTH 450 0
DWIDTH 10 0
BBX 10 9 0 0
BITMAP
0000
1e00
3f00
7380
6180
6180
7380
3f00
1e00
ENDCHAR
STARTCHAR ntilde
ENCODING 241
SWIDTH 450 0
DWIDTH 10 0
BBX 10 9 0 0
BITMAP
1e00
3f00
7380
6180
6d80
7d80
3d80
1b00
0200
ENDCHAR
STARTCHAR ograve
ENCODING 242
SWIDTH 450 0
DWIDTH 10 0
BBX 10 10 0 0
BITMAP
c000
6000
6d80
6fc0
6cc0
6cc0
6ec0
60c0
71c0
3f80
ENDCHAR
STARTCHAR oacute
ENCODING 243
SWIDTH 450 0
DWIDTH 10 0
BBX 10 9 0 0
BITMAP
0000
1b00
3f80
7fc0
64c0
60c0
60c0
70c0
30c0
ENDCHAR
STARTCHAR ocircumflex
ENCODING 244
SWIDTH 450 0
DWIDTH 10 0
BBX 10 9 0 0
BITMAP
00c0
1fc0
3f80
7000
6700
6700
7600
3f80
1f80
ENDCHAR
STARTCHAR otilde
ENCODING 245
SWIDTH 450 0
DWIDTH 10 0
BBX 10 9 0 0
BITMAP
06c0
1fc0
3f80
7000
6700
6700
7600
3f80
1f80
ENDCHAR
STARTCHAR odiaeresis
ENCODING 246
SWIDTH 450 0
DWIDTH 10 0
BBX 10 11 0 0
BITMAP
c000
e000
6000
7e00
7f00
6380
0180
3180
7380
7f00
3e00
ENDCHAR
STARTCHAR division
ENCODING 247
SWIDTH 450 0
DWIDTH 10 0
BBX 10 11 0 0
BITMAP
0040
00c0
00c0
66c0
7ec0
7ec0
66c0
66c0
66c0
7780
3700
ENDCHAR
STARTCHAR oslash
ENCODING 248
SWIDTH 450 0
DWIDTH 10 0
BBX 10 10 0 0
BITMAP
00c0
00c0
01c0
3f80
7f00
6000
6000
7cc0
7fc0
3780
ENDCHAR
STARTCHAR ugrave
ENCODING 249
SWIDTH 450 0
DWIDTH 10 0
BBX 10 10 0 0
BITMAP
00c0
00c0
01c0
0780
3e00
7f00
6300
6180
7dc0
38c0
ENDCHAR
STARTCHAR uacute
ENCODING 250
SWIDTH 450 0
DWIDTH 10 0
BBX 10 9 0 0
BITMAP
6d80
6d80
7d80
3d80
0d80
0d80
0d80
0d80
0d80
ENDCHAR
STARTCHAR ucircumflex
ENCODING 251
SWIDTH 450 0
DWIDTH 10 0
BBX 10 9 0 0
BITMAP
0000
3000
7000
6c00
6d80
6fc0
7b00
3000
0000
ENDCHAR
ENDFONT
